<svg width="30" height="30" viewBox="0 0 30 30" fill="none" xmlns="http://www.w3.org/2000/svg">
<path d="M28.75 13.7626L22.5 13.7501C21.8125 13.7501 21.25 14.3126 21.25 15.0001V26.2501C21.25 26.9376 21.8125 27.5001 22.5 27.5001H28.75C29.4375 27.5001 30 26.9376 30 26.2501V15.0001C30 14.3126 29.4375 13.7626 28.75 13.7626ZM28.75 25.0001H22.5V16.2501H28.75V25.0001ZM25 2.50012H2.5C1.1125 2.50012 0 3.61262 0 5.00012V20.0001C0 21.3751 1.1125 22.5001 2.5 22.5001H11.25V25.0001H8.75V27.5001H18.75V25.0001H16.25V22.5001H18.75V20.0001H2.5V5.00012H25V11.2501H27.5V5.00012C27.5 3.61262 26.375 2.50012 25 2.50012ZM14.9625 11.2501L13.75 7.50012L12.5375 11.2501H8.75L11.8375 13.4501L10.6625 17.0876L13.75 14.8376L16.8375 17.0876L15.6625 13.4501L18.75 11.2501H14.9625Z" fill="#FBB03B"/>
</svg>
