<svg width="46" height="46" viewBox="0 0 46 46" fill="none" xmlns="http://www.w3.org/2000/svg">
<path d="M23 40.25C20.5791 38.1851 18.3352 35.9213 16.2916 33.4823C13.225 29.8195 9.58331 24.3647 9.58331 19.1667C9.5806 13.7378 12.8498 8.84237 17.8654 6.76471C22.8809 4.68706 28.6543 5.83675 32.4913 9.67728C35.0145 12.1893 36.428 15.6063 36.4167 19.1667C36.4167 24.3647 32.775 29.8195 29.7083 33.4823C27.6648 35.9213 25.4209 38.1851 23 40.25ZM23 9.58337C17.7099 9.5897 13.423 13.8766 13.4166 19.1667C13.4166 21.4015 14.4267 25.2713 19.2337 31.0232C20.4185 32.4378 21.6756 33.7902 23 35.075C24.3245 33.7917 25.5822 32.4413 26.7681 31.029C31.5732 25.2694 32.5833 21.3996 32.5833 19.1667C32.577 13.8766 28.2901 9.5897 23 9.58337ZM23 24.9167C19.8243 24.9167 17.25 22.3423 17.25 19.1667C17.25 15.9911 19.8243 13.4167 23 13.4167C26.1756 13.4167 28.75 15.9911 28.75 19.1667C28.75 20.6917 28.1442 22.1542 27.0658 23.2326C25.9875 24.3109 24.525 24.9167 23 24.9167Z" fill="#FBB03B"/>
</svg>
