<svg width="58" height="58" viewBox="0 0 58 58" xmlns="http://www.w3.org/2000/svg">
<path fill="none"  d="M36.1173 9.0625C39.1899 9.88886 41.9915 11.5081 44.2414 13.7579C46.4912 16.0078 48.1104 18.8094 48.9368 21.882" stroke="#FBB03B" stroke-width="3" stroke-linecap="round" stroke-linejoin="round"/>
<path fill="none"  d="M34.2403 16.0672C36.0839 16.563 37.7648 17.5345 39.1147 18.8845C40.4647 20.2344 41.4362 21.9153 41.932 23.7589" stroke="#FBB03B" stroke-width="3" stroke-linecap="round" stroke-linejoin="round"/>
<path fill="none"  d="M20.9517 28.2785C22.8318 32.1222 25.9474 35.2237 29.7997 37.0863C30.0815 37.2199 30.3933 37.2777 30.7043 37.2542C31.0153 37.2307 31.3148 37.1266 31.5734 36.9521L37.2455 33.1698C37.4964 33.0025 37.785 32.9005 38.0853 32.8729C38.3855 32.8453 38.6879 32.8931 38.965 33.0119L49.5766 37.5596C49.937 37.7128 50.238 37.9789 50.4341 38.3179C50.6301 38.657 50.7107 39.0505 50.6637 39.4394C50.3283 42.0639 49.0477 44.4761 47.0618 46.2245C45.0759 47.9729 42.5209 48.9374 39.875 48.9375C31.703 48.9375 23.8657 45.6912 18.0873 39.9128C12.3088 34.1343 9.0625 26.297 9.0625 18.125C9.06264 15.4792 10.0272 12.9241 11.7755 10.9382C13.5239 8.9523 15.9362 7.67176 18.5607 7.33636C18.9495 7.28931 19.3431 7.36989 19.6821 7.56596C20.0211 7.76204 20.2873 8.06298 20.4404 8.42346L24.9922 19.0442C25.1099 19.3189 25.1579 19.6185 25.1318 19.9163C25.1057 20.214 25.0064 20.5007 24.8428 20.7508L21.0736 26.5099C20.902 26.769 20.8006 27.0681 20.7793 27.3781C20.7579 27.6881 20.8173 27.9983 20.9517 28.2785Z" stroke="#FBB03B" stroke-width="3" stroke-linecap="round" stroke-linejoin="round"/>
</svg>
