<svg width="60" height="60" viewBox="0 0 60 60"  xmlns="http://www.w3.org/2000/svg">
<path fill="none"  d="M30 52.5C42.4264 52.5 52.5 42.4264 52.5 30C52.5 17.5736 42.4264 7.5 30 7.5C17.5736 7.5 7.5 17.5736 7.5 30C7.5 42.4264 17.5736 52.5 30 52.5Z" stroke="#FBB03B" stroke-width="3.5" stroke-linecap="round" stroke-linejoin="round"/>
<path fill="none"  d="M21.0693 37.3232H23.9551V40.5605H27.1924V37.3232H33.1104V35.668H27.1924V33.207H30.9131C35.0586 33.207 37.8125 30.5557 37.8125 26.7764V26.7471C37.8125 22.9971 35.1025 20.3018 30.9424 20.3018H23.9551V31.5518H21.0693V33.207H23.9551V35.668H21.0693V37.3232ZM27.1924 30.5264V23.0264H30.0635C33.0518 23.0264 34.5166 24.418 34.5166 26.7764V26.8057C34.5166 29.1494 33.0225 30.5264 30.0635 30.5264H27.1924Z" fill="#FBB03B"/>
</svg>
