<svg width="46" height="46" viewBox="0 0 46 46" fill="none" xmlns="http://www.w3.org/2000/svg">
<path d="M7.66666 38.3334V24.9167H21.0833L14.9174 31.0883C17.0448 33.2638 19.9572 34.4931 23 34.5C27.8673 34.4928 32.2029 31.4223 33.8253 26.8333H33.8598C34.0794 26.2097 34.2454 25.5685 34.3562 24.9167H38.2126C37.2467 32.5831 30.7271 38.3331 23 38.3334H22.9808C18.9151 38.3455 15.0136 36.7305 12.1459 33.8483L7.66666 38.3334ZM11.6418 21.0833H7.78549C8.75101 13.4197 15.2662 7.67077 22.9904 7.66658H23C27.0664 7.65357 30.969 9.26869 33.8368 12.1517L38.3333 7.66658V21.0833H24.9167L31.0922 14.9117C28.9625 12.7337 26.0461 11.5041 23 11.5C18.1327 11.5072 13.7971 14.5777 12.1747 19.1667H12.1402C11.9189 19.7898 11.7528 20.4311 11.6437 21.0833H11.6418Z" fill="#FBB03B"/>
</svg>
