<svg width="46" height="46" viewBox="0 0 46 46"  xmlns="http://www.w3.org/2000/svg">
<path fill="none"  d="M8.10569 7.8336L11.6842 31.0936C11.7102 31.2856 11.7647 31.4686 11.8432 31.6382C12.0796 32.1485 12.5339 32.5374 13.0867 32.6853C13.2556 32.7307 13.4326 32.7533 13.6136 32.7503H34.6667C35.5131 32.7503 36.2593 32.1951 36.5025 31.3843L42.2525 12.2177C42.4266 11.6374 42.3161 11.0089 41.9544 10.5228C41.5927 10.0367 41.0225 9.75026 40.4167 9.75026H12.279L11.6486 5.6528C11.625 5.48148 11.5787 5.31739 11.513 5.16364C11.3936 4.88366 11.2107 4.64114 10.9849 4.45105C10.7754 4.27435 10.5274 4.14176 10.2554 4.06759C10.0841 4.0207 9.90449 3.99722 9.72067 4.00026H5.91667C4.85812 4.00026 4 4.85838 4 5.91693C4 6.97548 4.85812 7.8336 5.91667 7.8336H8.10569ZM15.2277 28.9169L12.8687 13.5836H37.8406L33.2406 28.9169H15.2277Z" fill="#FBB03B"/>
<path fill="none"  d="M19.3333 38.5003C19.3333 40.6174 17.6171 42.3336 15.5 42.3336C13.3829 42.3336 11.6667 40.6174 11.6667 38.5003C11.6667 36.3832 13.3829 34.6669 15.5 34.6669C17.6171 34.6669 19.3333 36.3832 19.3333 38.5003Z" fill="#FBB03B"/>
<path fill="none"  d="M36.5833 38.5003C36.5833 40.6174 34.8671 42.3336 32.75 42.3336C30.6329 42.3336 28.9167 40.6174 28.9167 38.5003C28.9167 36.3832 30.6329 34.6669 32.75 34.6669C34.8671 34.6669 36.5833 36.3832 36.5833 38.5003Z" fill="#FBB03B"/>
</svg>
