<svg width="57" height="57" viewBox="0 0 57 57" xmlns="http://www.w3.org/2000/svg">
<path  fill="none" d="M42.75 40.9688H15.2508C14.8336 40.9688 14.4297 40.8223 14.1095 40.5551C13.7892 40.2878 13.5729 39.9166 13.4983 39.5061L7.55286 6.80636C7.47824 6.39594 7.26194 6.02473 6.94167 5.75744C6.62141 5.49016 6.21749 5.34375 5.80034 5.34375H1.78125" stroke="#FBB03B" stroke-width="3" stroke-linecap="round" stroke-linejoin="round"/>
<path  fill="none" d="M16.0312 49.875C18.4906 49.875 20.4844 47.8813 20.4844 45.4219C20.4844 42.9625 18.4906 40.9688 16.0312 40.9688C13.5719 40.9688 11.5781 42.9625 11.5781 45.4219C11.5781 47.8813 13.5719 49.875 16.0312 49.875Z" stroke="#FBB03B" stroke-width="3" stroke-linecap="round" stroke-linejoin="round"/>
<path  fill="none" d="M42.75 49.875C45.2094 49.875 47.2031 47.8813 47.2031 45.4219C47.2031 42.9625 45.2094 40.9688 42.75 40.9688C40.2906 40.9688 38.2969 42.9625 38.2969 45.4219C38.2969 47.8813 40.2906 49.875 42.75 49.875Z" stroke="#FBB03B" stroke-width="3" stroke-linecap="round" stroke-linejoin="round"/>
<path  fill="none" d="M8.90625 14.25H47.7407C48.0016 14.25 48.2593 14.3073 48.4956 14.4179C48.7319 14.5285 48.9411 14.6896 49.1082 14.8899C49.2754 15.0902 49.3966 15.3248 49.4631 15.5771C49.5296 15.8294 49.5399 16.0932 49.4932 16.3499L46.5784 32.3811C46.5038 32.7916 46.2875 33.1628 45.9673 33.4301C45.647 33.6973 45.2431 33.8438 44.8259 33.8438H12.4688" stroke="#FBB03B" stroke-width="3" stroke-linecap="round" stroke-linejoin="round"/>
</svg>
