<svg width="46" height="46" viewBox="0 0 46 46" fill="none" xmlns="http://www.w3.org/2000/svg">
<path d="M24.9129 42.1666H21.0795V36.4166H24.9129V42.1666ZM35.1939 37.9078L31.1286 33.8425L33.8388 31.1323L37.9059 35.1995L35.1977 37.9078H35.1939ZM10.7985 37.9078L8.08645 35.1976L12.1498 31.1304L14.8619 33.8406L10.7985 37.9058V37.9078ZM22.9962 32.5967C17.6966 32.5946 13.4019 28.297 13.4033 22.9974C13.4047 17.6977 17.7017 13.4025 23.0013 13.4032C28.3009 13.4039 32.5968 17.7003 32.5968 22.9999C32.5915 28.2994 28.2956 32.5935 22.9962 32.5967ZM22.9962 17.2365C19.8136 17.2386 17.2352 19.8199 17.2366 23.0025C17.238 26.185 19.8188 28.764 23.0013 28.7633C26.1839 28.7626 28.7634 26.1825 28.7634 22.9999C28.7603 19.8167 26.1794 17.2376 22.9962 17.2365ZM42.1629 24.9166H36.4129V21.0833H42.1629V24.9166ZM9.57953 24.9166H3.82953V21.0833H9.57953V24.9166ZM33.8369 14.8694L31.1286 12.1573L35.1939 8.09017L37.9059 10.8023L33.8388 14.8675L33.8369 14.8694ZM12.1536 14.8694L8.09028 10.8042L10.8024 8.094L14.8657 12.1612L12.1555 14.8675L12.1536 14.8694ZM24.9129 9.58325H21.0795V3.83325H24.9129V9.58325Z" fill="#FBB03B"/>
</svg>
