<svg width="60" height="60" viewBox="0 0 60 60" xmlns="http://www.w3.org/2000/svg">
<path d="M56.25 28.125H41.25V18.75H51.2306C51.6053 18.75 51.9714 18.8623 52.2817 19.0724C52.592 19.2825 52.8323 19.5807 52.9715 19.9286L56.25 28.125Z" fill="none" stroke="#FBB03B" stroke-width="3" stroke-linecap="round" stroke-linejoin="round"/>
<path d="M3.75 33.75H41.25" stroke="#FBB03B" stroke-width="3" stroke-linecap="round" stroke-linejoin="round"/>
<path d="M44.0625 50.625C47.1691 50.625 49.6875 48.1066 49.6875 45C49.6875 41.8934 47.1691 39.375 44.0625 39.375C40.9559 39.375 38.4375 41.8934 38.4375 45C38.4375 48.1066 40.9559 50.625 44.0625 50.625Z" fill="none" stroke="#FBB03B" stroke-width="3" stroke-miterlimit="10"/>
<path d="M15.9375 50.625C19.0441 50.625 21.5625 48.1066 21.5625 45C21.5625 41.8934 19.0441 39.375 15.9375 39.375C12.8309 39.375 10.3125 41.8934 10.3125 45C10.3125 48.1066 12.8309 50.625 15.9375 50.625Z" fill="none"  stroke="#FBB03B" stroke-width="3" stroke-miterlimit="10"/>
<path d="M38.4375 45H21.5625" stroke="#FBB03B" stroke-width="3" stroke-linecap="round" stroke-linejoin="round"/>
<path d="M10.3125 45H5.625C5.12772 45 4.65081 44.8025 4.29917 44.4508C3.94754 44.0992 3.75 43.6223 3.75 43.125V16.875C3.75 16.3777 3.94754 15.9008 4.29917 15.5492C4.65081 15.1975 5.12772 15 5.625 15H41.25V40.1285" fill="none" stroke="#FBB03B" stroke-width="3" stroke-linecap="round" stroke-linejoin="round"/>
<path d="M41.25 40.1285V28.125H56.25V43.125C56.25 43.6223 56.0525 44.0992 55.7008 44.4508C55.3492 44.8025 54.8723 45 54.375 45H49.6875" fill="none" stroke="#FBB03B" stroke-width="3" stroke-linecap="round" stroke-linejoin="round"/>
</svg>
