<?xml version="1.0" encoding="UTF-8"?><!DOCTYPE svg PUBLIC "-//W3C//DTD SVG 1.1//EN" "http://www.w3.org/Graphics/SVG/1.1/DTD/svg11.dtd"><svg xmlns="http://www.w3.org/2000/svg" xmlns:xlink="http://www.w3.org/1999/xlink"><symbol id="airplay" viewBox="0 0 43 37"><path d="M32.75 36.25h-22.5L21.5 25l11.25 11.25zm-20.625-5.625h-7.5a3.75 3.75 0 01-3.75-3.75v-22.5a3.75 3.75 0 013.75-3.75h33.75a3.75 3.75 0 013.75 3.75v22.5a3.75 3.75 0 01-3.75 3.75h-7.5v-3.75h7.5v-22.5H4.625v22.5h7.5v3.75z" fill="#FBB03B"/></symbol><symbol id="device-mobile" viewBox="0 0 69 69"><path d="M47.438 6.469H21.561a4.313 4.313 0 00-4.312 4.312V58.22a4.312 4.312 0 004.313 4.312h25.875a4.312 4.312 0 004.312-4.312V10.78a4.313 4.313 0 00-4.313-4.312zM17.25 15.094h34.5M17.25 53.906h34.5" fill="none" stroke="#FBB03B" stroke-width="3" stroke-linecap="round" stroke-linejoin="round"/></symbol><symbol id="important-devices" viewBox="0 0 30 30"><path d="M28.75 13.763l-6.25-.013c-.688 0-1.25.563-1.25 1.25v11.25c0 .688.563 1.25 1.25 1.25h6.25c.688 0 1.25-.562 1.25-1.25V15c0-.687-.563-1.237-1.25-1.237zm0 11.237H22.5v-8.75h6.25V25zM25 2.5H2.5A2.491 2.491 0 000 5v15a2.5 2.5 0 002.5 2.5h8.75V25h-2.5v2.5h10V25h-2.5v-2.5h2.5V20H2.5V5H25v6.25h2.5V5A2.5 2.5 0 0025 2.5zm-10.037 8.75L13.75 7.5l-1.213 3.75H8.75l3.088 2.2-1.175 3.638 3.087-2.25 3.087 2.25-1.175-3.638 3.088-2.2h-3.787z" fill="#FBB03B"/></symbol><symbol id="location_outline" viewBox="0 0 46 46"><path d="M23 40.25a57.067 57.067 0 01-6.708-6.768c-3.067-3.662-6.709-9.117-6.709-14.315a13.417 13.417 0 0122.908-9.49 13.33 13.33 0 013.926 9.49c0 5.198-3.642 10.652-6.709 14.315A57.058 57.058 0 0123 40.25zm0-30.667a9.595 9.595 0 00-9.583 9.584c0 2.234 1.01 6.104 5.817 11.856A53.549 53.549 0 0023 35.075a53.85 53.85 0 003.768-4.046c4.805-5.76 5.815-9.63 5.815-11.862A9.595 9.595 0 0023 9.583zm0 15.334a5.75 5.75 0 110-11.5 5.75 5.75 0 010 11.5z" fill="#FBB03B"/></symbol><symbol id="move" viewBox="0 0 46 46"><path d="M24.917 21.083V11.5h5.75L23 3.833 15.333 11.5h5.75v9.583H11.5v-5.75L3.833 23l7.667 7.667v-5.75h9.583V34.5h-5.75L23 42.167l7.667-7.667h-5.75v-9.583H34.5v5.75L42.167 23 34.5 15.333v5.75h-9.583z" fill="#FBB03B"/></symbol><symbol id="phone-call" viewBox="0 0 58 58"><path fill="none" d="M36.117 9.063a18.16 18.16 0 0112.82 12.819M34.24 16.067a10.894 10.894 0 017.692 7.692M20.952 28.279a19.11 19.11 0 008.848 8.807 1.796 1.796 0 001.773-.134l5.672-3.782a1.813 1.813 0 011.72-.158l10.612 4.548a1.808 1.808 0 011.087 1.88 10.877 10.877 0 01-10.789 9.498A30.812 30.812 0 019.062 18.125a10.877 10.877 0 019.499-10.789 1.806 1.806 0 011.88 1.087l4.551 10.621a1.813 1.813 0 01-.15 1.707l-3.768 5.759a1.795 1.795 0 00-.122 1.768z" stroke="#FBB03B" stroke-width="3" stroke-linecap="round" stroke-linejoin="round"/></symbol><symbol id="profit" viewBox="0 0 60 60"><path fill="none" d="M30 52.5c12.426 0 22.5-10.074 22.5-22.5S42.426 7.5 30 7.5 7.5 17.574 7.5 30 17.574 52.5 30 52.5z" stroke="#FBB03B" stroke-width="3.5" stroke-linecap="round" stroke-linejoin="round"/><path fill="#FBB03B" d="M21.07 37.323h2.885v3.237h3.237v-3.237h5.918v-1.655h-5.918v-2.461h3.721c4.146 0 6.9-2.651 6.9-6.43v-.03c0-3.75-2.71-6.445-6.87-6.445h-6.988v11.25H21.07v1.655h2.886v2.461H21.07v1.655zm6.122-6.797v-7.5h2.872c2.988 0 4.453 1.392 4.453 3.75v.03c0 2.343-1.495 3.72-4.454 3.72h-2.87z"/></symbol><symbol id="refresh_02" viewBox="0 0 46 46"><path d="M7.667 38.333V24.917h13.416l-6.166 6.171A11.34 11.34 0 0023 34.5a11.5 11.5 0 0010.825-7.667h.035c.22-.623.385-1.264.496-1.916h3.857A15.333 15.333 0 0123 38.333h-.02a15.22 15.22 0 01-10.834-4.485l-4.48 4.485zm3.975-17.25H7.785A15.333 15.333 0 0122.99 7.667H23a15.217 15.217 0 0110.837 4.485l4.496-4.485v13.416H24.917l6.175-6.171A11.34 11.34 0 0023 11.5a11.5 11.5 0 00-10.825 7.667h-.035a11.294 11.294 0 00-.496 1.916h-.002z" fill="#FBB03B"/></symbol><symbol id="shopping-cart-2" viewBox="0 0 57 57"><path fill="none" d="M42.75 40.969h-27.5a1.781 1.781 0 01-1.752-1.463l-5.945-32.7A1.781 1.781 0 005.8 5.344H1.781M16.031 49.875a4.453 4.453 0 100-8.906 4.453 4.453 0 000 8.906zM42.75 49.875a4.453 4.453 0 100-8.906 4.453 4.453 0 000 8.906z" stroke="#FBB03B" stroke-width="3" stroke-linecap="round" stroke-linejoin="round"/><path fill="none" d="M8.906 14.25h38.835a1.78 1.78 0 011.752 2.1L46.578 32.38a1.781 1.781 0 01-1.752 1.463H12.469" stroke="#FBB03B" stroke-width="3" stroke-linecap="round" stroke-linejoin="round"/></symbol><symbol id="shopping-cart" viewBox="0 0 46 46"><path fill="#FBB03B" d="M8.106 7.834l3.578 23.26a1.922 1.922 0 001.93 1.657h21.053c.846 0 1.592-.556 1.835-1.367l5.75-19.166a1.917 1.917 0 00-1.835-2.468H12.279l-.63-4.097a1.906 1.906 0 00-.664-1.202 1.912 1.912 0 00-1.264-.45H5.917a1.917 1.917 0 100 3.833h2.189zm7.122 21.083l-2.36-15.333h24.973l-4.6 15.333H15.228zM19.333 38.5a3.833 3.833 0 11-7.666 0 3.833 3.833 0 017.666 0zM36.583 38.5a3.833 3.833 0 11-7.666 0 3.833 3.833 0 017.666 0z"/></symbol><symbol id="sun" viewBox="0 0 46 46"><path d="M24.913 42.167h-3.834v-5.75h3.834v5.75zm10.28-4.26l-4.064-4.064 2.71-2.71 4.067 4.067-2.708 2.708h-.004zm-24.394 0l-2.713-2.71 4.064-4.067 2.712 2.71-4.063 4.066v.002zm12.197-5.31a9.597 9.597 0 119.6-9.597 9.606 9.606 0 01-9.6 9.597zm0-15.36a5.763 5.763 0 10.008 11.526 5.763 5.763 0 00-.008-11.527zm19.167 7.68h-5.75v-3.834h5.75v3.834zm-32.583 0H3.83v-3.834h5.75v3.834zm24.257-10.048l-2.708-2.712 4.065-4.067 2.712 2.712-4.067 4.066-.002.001zm-21.683 0L8.09 10.804l2.712-2.71 4.064 4.067-2.71 2.707-.002.001zm12.759-5.286h-3.834v-5.75h3.834v5.75z" fill="#FBB03B"/></symbol><symbol id="truck" viewBox="0 0 60 60"><path d="M56.25 28.125h-15V18.75h9.98a1.875 1.875 0 011.742 1.179l3.278 8.196z" fill="none" stroke="#FBB03B" stroke-width="3" stroke-linecap="round" stroke-linejoin="round"/><path d="M3.75 33.75h37.5" stroke="#FBB03B" stroke-width="3" stroke-linecap="round" stroke-linejoin="round"/><path d="M44.063 50.625a5.625 5.625 0 100-11.25 5.625 5.625 0 000 11.25zM15.938 50.625a5.625 5.625 0 100-11.25 5.625 5.625 0 000 11.25z" fill="none" stroke="#FBB03B" stroke-width="3" stroke-miterlimit="10"/><path d="M38.438 45H21.561" stroke="#FBB03B" stroke-width="3" stroke-linecap="round" stroke-linejoin="round"/><path d="M10.313 45H5.625a1.875 1.875 0 01-1.875-1.875v-26.25A1.875 1.875 0 015.625 15H41.25v25.129M41.25 40.129V28.125h15v15A1.875 1.875 0 0154.375 45h-4.688" fill="none" stroke="#FBB03B" stroke-width="3" stroke-linecap="round" stroke-linejoin="round"/></symbol><symbol id="video-playcircle" viewBox="0 0 61 60"><path d="M30.63 57.61c15.586 0 28.221-12.553 28.221-28.037 0-15.484-12.635-28.036-28.221-28.036-15.587 0-28.223 12.552-28.223 28.036 0 15.484 12.636 28.036 28.223 28.036z" fill="none" stroke="#fff" stroke-width="3" stroke-miterlimit="10"/><path d="M40.037 29.573l-14.111-9.346v18.691l14.11-9.345z" fill="#fff" stroke="#fff" stroke-width="3" stroke-linecap="round" stroke-linejoin="round"/></symbol></svg>